<svg width="10" height="12" viewBox="0 0 10 12" fill="none" xmlns="http://www.w3.org/2000/svg">
<g clip-path="url(#clip0_1208_225)">
<path d="M2 0C1.17266 0 0.5 0.672656 0.5 1.5V10.5C0.5 11.3273 1.17266 12 2 12H8C8.82734 12 9.5 11.3273 9.5 10.5V3.75H6.5C6.08516 3.75 5.75 3.41484 5.75 3V0H2ZM6.5 0V3H9.5L6.5 0ZM5.5625 5.4375V7.83047L6.28906 7.10391C6.50938 6.88359 6.86562 6.88359 7.08359 7.10391C7.30156 7.32422 7.30391 7.68047 7.08359 7.89844L5.39609 9.58594C5.17578 9.80625 4.81953 9.80625 4.60156 9.58594L2.91406 7.89844C2.69375 7.67812 2.69375 7.32188 2.91406 7.10391C3.13438 6.88594 3.49062 6.88359 3.70859 7.10391L4.43516 7.83047L4.4375 5.4375C4.4375 5.12578 4.68828 4.875 5 4.875C5.31172 4.875 5.5625 5.12578 5.5625 5.4375Z" fill="#233735"/>
</g>
<defs>
<clipPath id="clip0_1208_225">
<rect width="9" height="12" fill="white" transform="translate(0.5)"/>
</clipPath>
</defs>
</svg>
