<svg width="28" height="21" viewBox="0 0 28 21" fill="none" xmlns="http://www.w3.org/2000/svg">
<path d="M3.03125 0.375C1.63379 0.375 0.5 1.50879 0.5 2.90625C0.5 3.70254 0.874414 4.45137 1.5125 4.93125L12.9875 13.5375C13.5887 13.9857 14.4113 13.9857 15.0125 13.5375L26.4875 4.93125C27.1256 4.45137 27.5 3.70254 27.5 2.90625C27.5 1.50879 26.3662 0.375 24.9688 0.375H3.03125ZM0.5 6.28125V17.25C0.5 19.1115 2.01348 20.625 3.875 20.625H24.125C25.9865 20.625 27.5 19.1115 27.5 17.25V6.28125L16.025 14.8875C14.8227 15.7893 13.1773 15.7893 11.975 14.8875L0.5 6.28125Z" fill="#233735"/>
</svg>
