<svg width="27" height="25" viewBox="0 0 27 25" xmlns="http://www.w3.org/2000/svg">
<g clip-path="url(#clip0_1206_56)">
<path fill-rule="evenodd" clip-rule="evenodd" d="M13.4613 0C6.29402 0 0.5 5.72917 0.5 12.8169C0.5 18.4826 4.21243 23.2784 9.36255 24.9758C10.0064 25.1034 10.2423 24.7 10.2423 24.3607C10.2423 24.0635 10.2211 23.0451 10.2211 21.9839C6.61557 22.7479 5.86476 20.456 5.86476 20.456C5.28533 18.9706 4.4268 18.5888 4.4268 18.5888C3.24671 17.8036 4.51276 17.8036 4.51276 17.8036C5.82178 17.8885 6.50865 19.1193 6.50865 19.1193C7.66725 21.0714 9.5342 20.5198 10.2853 20.1802C10.3925 19.3526 10.736 18.7797 11.1008 18.4615C8.22518 18.1643 5.19963 17.0609 5.19963 12.1378C5.19963 10.7372 5.71433 9.59141 6.52988 8.70026C6.4012 8.38203 5.95045 7.06615 6.65882 5.30495C6.65882 5.30495 7.7532 4.96536 10.2208 6.62057C11.2773 6.34002 12.3668 6.1973 13.4613 6.19609C14.5557 6.19609 15.6713 6.34479 16.7015 6.62057C19.1693 4.96536 20.2637 5.30495 20.2637 5.30495C20.9721 7.06615 20.5211 8.38203 20.3924 8.70026C21.2294 9.59141 21.7229 10.7372 21.7229 12.1378C21.7229 17.0609 18.6973 18.143 15.8002 18.4615C16.2724 18.8646 16.68 19.6284 16.68 20.838C16.68 22.5568 16.6587 23.9362 16.6587 24.3604C16.6587 24.7 16.8949 25.1034 17.5385 24.976C22.6886 23.2781 26.401 18.4826 26.401 12.8169C26.4223 5.72917 20.607 0 13.4613 0Z"/>
</g>
<defs>
<clipPath id="clip0_1206_56">
<rect width="26" height="25" fill="white" transform="translate(0.5)"/>
</clipPath>
</defs>
</svg>
