<svg width="28" height="26" viewBox="0 0 28 26" fill="none" xmlns="http://www.w3.org/2000/svg">
<g clip-path="url(#clip0_1241_491)">
<path d="M23.92 0.480003H4.07998C2.36878 0.480003 0.97998 1.8688 0.97998 3.58V23.42C0.97998 25.1312 2.36878 26.52 4.07998 26.52H23.92C25.6312 26.52 27.02 25.1312 27.02 23.42V3.58C27.02 1.8688 25.6312 0.480003 23.92 0.480003ZM9.03998 10.4V22.18H5.31998V10.4H9.03998ZM5.31998 6.9714C5.31998 6.1034 6.06398 5.44 7.17998 5.44C8.29598 5.44 8.99658 6.1034 9.03998 6.9714C9.03998 7.8394 8.34558 8.54 7.17998 8.54C6.06398 8.54 5.31998 7.8394 5.31998 6.9714ZM22.68 22.18H18.96C18.96 22.18 18.96 16.4388 18.96 15.98C18.96 14.74 18.34 13.5 16.79 13.4752H16.7404C15.24 13.4752 14.62 14.7524 14.62 15.98C14.62 16.5442 14.62 22.18 14.62 22.18H10.9V10.4H14.62V11.9872C14.62 11.9872 15.8166 10.4 18.2222 10.4C20.6836 10.4 22.68 12.0926 22.68 15.5212V22.18Z" fill="#233735"/>
</g>
<defs>
<clipPath id="clip0_1241_491">
<rect width="27" height="26" fill="white" transform="translate(0.5)"/>
</clipPath>
</defs>
</svg>
